<?xml version="1.0" encoding="UTF-8" standalone="no"?>
<svg
   xmlns:dc="http://purl.org/dc/elements/1.1/"
   xmlns:cc="http://creativecommons.org/ns#"
   xmlns:rdf="http://www.w3.org/1999/02/22-rdf-syntax-ns#"
   xmlns:svg="http://www.w3.org/2000/svg"
   xmlns="http://www.w3.org/2000/svg"
   xmlns:sodipodi="http://sodipodi.sourceforge.net/DTD/sodipodi-0.dtd"
   xmlns:inkscape="http://www.inkscape.org/namespaces/inkscape"
   width="1517.093"
   height="1517.093"
   version="1.1"
   id="svg16"
   sodipodi:docname="Logo_Bazo_with_Text_dark-middle.svg"
   inkscape:version="0.92.2 2405546, 2018-03-11">
  <metadata
     id="metadata22">
    <rdf:RDF>
      <cc:Work
         rdf:about="">
        <dc:format>image/svg+xml</dc:format>
        <dc:type
           rdf:resource="http://purl.org/dc/dcmitype/StillImage" />
        <dc:title />
      </cc:Work>
    </rdf:RDF>
  </metadata>
  <defs
     id="defs20" />
  <sodipodi:namedview
     pagecolor="#ffffff"
     bordercolor="#666666"
     borderopacity="1"
     objecttolerance="10"
     gridtolerance="10"
     guidetolerance="10"
     inkscape:pageopacity="0"
     inkscape:pageshadow="2"
     inkscape:window-width="1600"
     inkscape:window-height="836"
     id="namedview18"
     showgrid="false"
     inkscape:zoom="0.21290718"
     inkscape:cx="-180.82999"
     inkscape:cy="323.9543"
     inkscape:window-x="0"
     inkscape:window-y="27"
     inkscape:window-maximized="1"
     inkscape:current-layer="svg16" />
  <path
     d="m 284.803,678.24201 c 0,17.218 -13.846,31.177 -30.936,31.177 -0.326,0 -0.638,0 -0.95,-0.028 v 0.028 h -62.821 v -62.354 h 62.821 v 0.027 c 0.312,-0.027 0.624,-0.027 0.95,-0.027 17.09,0 30.936,13.958 30.936,31.177 z m 0,160.607 c 0,17.218 -13.846,31.179 -30.936,31.179 -0.326,0 -0.638,0 -0.95,-0.029 v 0.029 h -62.821 v -62.356 h 62.821 v 0.028 c 0.312,-0.028 0.624,-0.028 0.95,-0.028 17.09,0 30.936,13.958 30.936,31.177 z"
     id="path2"
     inkscape:connector-curvature="0" />
  <path
     d="M 0,1007.295 V 501.39599 h 0.199 v -1.40297 H 347.11 v 82.27997 H 94.709 v 348.381 H 332.012 L 418.459,1017.1 H 0.199 v -9.805 z"
     id="path4"
     inkscape:connector-curvature="0" />
  <g
     id="g12"
     style="fill:#636363"
     transform="translate(0,499.68051)">
    <path
       d="m 481.363,234.202 h -2.805 c 1.474,5.058 2.367,10.357 2.678,15.785 a 106.962,106.962 0 0 1 -1.348,9.778 c -4.448,24.503 -16.85,41.906 -41.89,48.936 2.764,2.933 5.428,5.639 8.007,8.262 17.033,17.091 30.738,28.599 35.357,51.599 v 149.17 L 389.077,426.553 V 323.906 c -4.904,-28.329 -26.018,-51.102 -53.469,-58.358 29.137,-8.176 50.932,-33.939 53.242,-65.062 0.129,-1.827 0.227,-3.698 0.227,-5.569 V 0 l 92.285,90.614 v 143.588 z"
       id="path6"
       inkscape:connector-curvature="0" />
    <path
       d="m 481.363,234.202 v 14.412 l -0.127,1.373 c -0.311,-5.428 -1.204,-10.728 -2.678,-15.785 z"
       id="path8"
       inkscape:connector-curvature="0" />
    <path
       d="m 478.559,234.202 c 1.474,5.058 2.367,10.357 2.678,15.785 l 0.127,-1.373 v -14.412 z m 2.806,14.409 c 0,0.482 -0.044,0.922 -0.127,1.373"
       id="path10"
       inkscape:connector-curvature="0" />
  </g>
  <path
     d="m 677.65,626.01591 c -49.67,0.478 -99.009,8.24 -147.191,19.748 1.064,20.456 2.132,40.912 3.198,61.368 51.247,-2.96 102.375,-8.702 153.744,-7.14 15.977,0.934 32.97,9.754 36.873,26.064 4.816,15.964 2.619,32.443 3.136,48.885 -39.056,3.863 -78.369,5.546 -117.262,10.821 -31.198,5.207 -65.212,16.145 -83.804,43.056 -18.709,28.136 -19.167,63.802 -15.575,96.102 3.439,29.49 17.004,59.982 43.717,75.91799 31.708,19.122 71.128,18.1 106.737,13.339 27.754,-4.062 54.75,-12.51 80.168,-24.10599 28.627,21.67699 66.22,27.17899 101.47,27.00399 0.795,-21.95199 1.592,-43.90499 2.391,-65.85699 -12.665,-1.028 -27.684,-6.57 -30.873,-20.094 -4.03,-17.544 -0.901,-35.821 -1.89,-53.651 -0.34,-47.506 0.67,-95.04 -0.476,-142.529 -1.772,-31.232 -11.18,-65.361 -37.598,-85.275 -27.343,-20.348 -63.576,-23.803 -96.764,-23.653 z m 49.76,304.81 c -31.277,10.522 -64.458,16.842 -97.523,15.17 -15.794,-0.853 -29.493,-12.6 -32.649,-27.756 -4.391,-19.79 -4.075,-43.38 10.577,-59.129 16.585,-16.76 42.333,-14.235 63.873,-17.118 l 55.722,-5.264 z m 145.49,-286.126 v 74.166 h 176.496 L 872.9,942.11791 v 74.98199 h 280.445 V 940.55191 H 977.579 l 175.766,-223.256 v -74.978 H 872.9 v 1.191 z m 473.378,-18.633 c -41.473,0.267 -86.224,8.809 -116.823,38.33 -31.272,30.959 -42.673,75.468 -46.746,117.634 -3.746,48.37 -2.327,98.347 14.068,144.572 10.609,29.84 30.411,57.914 59.96,72.118 37.963,18.73999 82.024,20.49599 123.602,16.80999 37.717,-3.656 77.15,-17.89999 99.91,-49.18699 28.39,-38.85 35.474,-88.139 36.774,-134.795 0.706,-48.27 -3.537,-99.015 -28.48,-141.748 -16.255,-28.868 -45.866,-48.746 -78.149,-56.632 -20.862,-5.487 -42.575,-7.257 -64.116,-7.102 z m 2.783,72.836 c 24.707,-0.502 53.036,6.91 65.388,29.814 15.372,29.3 15.763,63.393 16.11,95.554 -0.81,31.161 -1.885,64.5 -17.284,92.499 -13.36,22.619 -42.459,28.21 -67.223,27.472 -23.855,0.035 -51.467,-7.552 -62.77,-30.221 -14.668,-29.76 -15.315,-63.719 -15.724,-96.305 0.761,-30.996 1.582,-64.203 17.833,-91.832 13.217,-21.062 39.967,-27.212 63.67,-26.981 z"
     id="path14"
     inkscape:connector-curvature="0" />
</svg>
